,
  Hottest scene tracker on the net !!!   http://www.scenetime.com
 
         Please seed back after your download is completed

           Credit goes  to all seeders and  http://www.scenetime.com
 



...................................NFO:.................................................[IMG]http://leetleech.org/images/58407518361187142577.jpg[/IMG]

[b]Wall Street Money Never Sleeps R5 LiNE XViD-LEGi0N

[img]http://leetleech.org/images/48874973695367351744.png[/img]

[color=red]General[/color]
Format: AVI
File size: 1.36 GiB
Duration: 2h 7mn
Overall bit rate: 1 527 Kbps
IMDb Rating: 6.7/10 
Genre:  |Drama|
Release: 24 September 2010 (USA)
IMDb Link: http://www.imdb.com/title/tt1027718/
Youtube Link: http://www.imdb.com/video/imdb/vi875627545/
Source:  ViDEO (ELEKTRI4KA Thanks!!) AUDiO (LAP Thanks!!)       
Encoded By : TH0RN

[color=red]Video[/color]
Format: MPEG-4 Visual
Format profile : Advanced Simple@L5
Format settings, QPel: No
Format settings, GMC: No warppoints
Format settings, Matrix: Default (H.263)
Muxing mode: Packed bitstream
Codec ID: XVID
Bit rate: 1 138 Kbps
Width: 720 pixels
Height: 304 pixels
Display aspect ratio: 2.35:1
Frame rate: 25.000 fps
Chroma subsampling: 4:2:0
Bit depth: 24 bits
Scan type: Progressive
Bits/(Pixel*Frame): 0.258
Stream size: 1.26 GiB (93%)


[color=red]Audio[/color]
Format: VBR-MP3
Bit rate mode: Constant
Bit rate: 112 Kbps
Channel(s): 2 channels
Sampling rate: 44.1 KHz
Stream size: 95.8 MiB (7%)


[img]http://leetleech.org/images/89524873606771859129.png[/img]
As the global economy teeters on the brink of disaster, a
young Wall Street trader partners with disgraced former 
Wall Street corporate raider Gordon Gekko on a two-tiered 
mission: To alert the financial community to the coming 
doom, and to find out who was responsible for the death 
of the young trader's mentor. 

[color=red]Tagline:[/color]
N/A

[img]http://leetleech.org/images/84434050717770922575.png[/img]
Michael Douglas ... Gordon Gekko
Shia LaBeouf 	... Jake Moore
Josh Brolin 	... Bretton James
Carey Mulligan 	... Winnie Gekko
Eli Wallach 	... Jules Steinhardt
Susan Sarandon 	... Jake's Mother
Frank Langella 	... Louis Zabel
Austin Pendleton ... Dr. Masters
John Bedford Lloyd ... Treasury Secretary
Vanessa Ferlito ... Audrey 



[color=red]GREETZ[/color]

Noir | Joshua08 | bigimac | DiLLoN | BMB |

kempas | KaN1vE | mike160 | HiTM4N |  

Lungbuster | skillz |

FLAWL3SS | IMAGiNE |  THC | CRYS | iNK |

ALL P2P AND AFFILIATED SITES  

[color=red]SAMPLE INCLUDED![/color][/b]

[img]http://leetleech.org/images/95521316153253938506.png[/img]

[img]http://www.leetleech.org/images/13670178254437899660.png[/img]
[img]http://www.leetleech.org/images/25343178059347574920.png[/img]
[img]http://www.leetleech.org/images/46291334797110802923.png[/img]
[img]http://www.leetleech.org/images/74977869793980576265.png[/img]
[img]http://www.leetleech.org/images/72004379279279914941.png[/img]
[img]http://www.leetleech.org/images/98206105287096247862.png[/img]

[img]http://leetleech.org/images/12755021538703799215.png[/img]